<svg id="Capa_1" enable-background="new 0 0 512 512" height="512" viewBox="0 0 512 512" width="512" xmlns="http://www.w3.org/2000/svg"><path d="m401.268 184.531c12.106-19.053 18.732-41.332 18.732-64.355 0-66.168-53.832-120-120-120h-180c-66.168 0-120 53.832-120 120v207.648l81.533-87.648h29.003c-11.733 18.535-18.536 40.487-18.536 64 0 66.168 53.832 120 120 120h218.467l81.533 87.648v-207.648c0-63.05-48.877-114.898-110.732-119.645zm-332.801 25.645-38.467 41.352v-131.352c0-49.626 40.374-90 90-90h180c49.626 0 90 40.374 90 90 0 24.109-9.683 47.135-26.732 64h-151.268c-28.128 0-54.023 9.732-74.505 26zm413.533 225.352-38.467-41.352h-231.533c-49.626 0-90-40.374-90-90s40.374-90 90-90h180c49.626 0 90 40.374 90 90z"/></svg>